<!--?xml version="1.0" standalone="no"?-->
              <svg id="sw-js-blob-svg" viewBox="0 0 100 100" xmlns="http://www.w3.org/2000/svg" version="1.1">
                    <defs> 
                        <linearGradient id="sw-gradient" x1="0" x2="1" y1="1" y2="0">
                            <stop id="stop1" stop-color="rgba(127, 79, 47, 1)" offset="0%"></stop>
                            <stop id="stop2" stop-color="rgba(255, 141.866, 70.633, 1)" offset="100%"></stop>
                        </linearGradient>
                    </defs>
                <path fill="url(#sw-gradient)" d="M19.8,-32C25.1,-27.4,28.4,-20.9,31.7,-14.3C34.9,-7.7,38,-0.9,39,6.9C39.9,14.8,38.7,23.6,33.9,29.6C29.1,35.7,20.7,38.9,12.3,40.8C3.9,42.8,-4.5,43.5,-12,41.2C-19.6,38.9,-26.1,33.6,-32.1,27.4C-38.1,21.3,-43.4,14.1,-43.4,6.9C-43.4,-0.3,-38.1,-7.6,-34,-15.1C-29.9,-22.6,-27.1,-30.2,-21.7,-34.7C-16.2,-39.2,-8.1,-40.6,-0.4,-39.9C7.2,-39.2,14.5,-36.5,19.8,-32Z" width="100%" height="100%" transform="translate(50 50)" stroke-width="0" style="transition: all 0.3s ease 0s;"></path>
              </svg>